# xmcd
# Track frame offsets:
# 150
# 14814
# 30922
# 44236
# 60860
# 70592
# 85528
# 96610
# 109754
# 123939
# 143347
# 158629
# 170959
# 182810
#
# Disc length: 2617 seconds
# Revision: 0
# Processed by: cddbd v1.5.2PL0 Copyright (c) Steve Scherf et al.
# Submitted via: VisiTrax 2.10.3.257 - For more info visit www.synapsa.com
#
DISCID=b60a370e
DTITLE=Tomboola Band - It ain't over yet
DYEAR=1994
DGENRE=Country
TTITLE0=Adalida
TTITLE1=If I Said You Had A Beautiful Body
TTITLE2=Tequila sunrise
TTITLE3=Trucker medley
TTITLE4=Kiss an angel goodmorning
TTITLE5=Life turned her that way
TTITLE6=Alabama jubilee
TTITLE7=All i have to do is dream
TTITLE8=Oh Lonesome Me
TTITLE9=Together again
TTITLE10=I couldn't leave you if I tried
TTITLE11=I Fall To Pieces
TTITLE12=I Walk The Line
TTITLE13=For the Good Times - Amazing Grace
EXTD=Amedane - 2005
EXTT0=
EXTT1=
EXTT2=
EXTT3=
EXTT4=
EXTT5=
EXTT6=
EXTT7=
EXTT8=
EXTT9=
EXTT10=
EXTT11=
EXTT12=
EXTT13=
PLAYORDER=
